<svg xmlns="http://www.w3.org/2000/svg" xmlns:xlink="http://www.w3.org/1999/xlink" viewBox="0 0 710 121"><defs><linearGradient id="a" x1="9.94" y1="22.43" x2="81.19" y2="63.57" gradientUnits="userSpaceOnUse"><stop offset="0" stop-color="#ffe566"/><stop offset="0.29" stop-color="#ffe368"/><stop offset="0.29" stop-color="#ffe368"/><stop offset="0.29" stop-color="#ffe16a"/><stop offset="0.29" stop-color="#ffda6f"/><stop offset="0.29" stop-color="#ffcd79"/><stop offset="0.29" stop-color="#ffbc87"/><stop offset="0.29" stop-color="#ffa59a"/><stop offset="0.29" stop-color="#ff89b0"/><stop offset="0.29" stop-color="#ff68ca"/><stop offset="0.29" stop-color="#f6c"/><stop offset="0.48" stop-color="#f6c"/><stop offset="0.82" stop-color="#f6c"/><stop offset="0.82" stop-color="#e16bd6"/><stop offset="0.82" stop-color="#c170e1"/><stop offset="0.82" stop-color="#a575ea"/><stop offset="0.82" stop-color="#8e79f1"/><stop offset="0.82" stop-color="#7d7cf7"/><stop offset="0.82" stop-color="#717efb"/><stop offset="0.82" stop-color="#6a7ffd"/><stop offset="0.82" stop-color="#687ffe"/><stop offset="0.82" stop-color="#687ffe"/><stop offset="1" stop-color="#667fff"/></linearGradient></defs><path d="M154.81,114.48q-18.47,0-31.95-14.82L136,82.49q9.47,10.28,19.68,10.27,3.76,0,5.59-1.75a5.68,5.68,0,0,0,1.82-4.23,5.87,5.87,0,0,0-2.13-4.68q-2.12-1.83-8.8-4.16a70.85,70.85,0,0,1-9.79-4.23,50.32,50.32,0,0,1-8.07-5.59A21.78,21.78,0,0,1,128,59.47a31.41,31.41,0,0,1-2.13-12,26.41,26.41,0,0,1,8.2-19.77q8.21-7.93,20.6-8.19,17.13-.39,30.49,12.35L172.42,49.45q-10.08-8.33-16.4-8.32-6.08,0-6.07,5.46a6.18,6.18,0,0,0,2.19,4.55q2.18,2.09,8.38,4.69,13.48,5.46,17.74,8.58,9.11,6.63,9.11,19.51a33,33,0,0,1-3,14.5,23.56,23.56,0,0,1-8,9.56,36.27,36.27,0,0,1-10.38,4.94A40.36,40.36,0,0,1,154.81,114.48Z" fill="#30323d"/><path d="M233.9,48.15q10,0,15.55,6T255,74.68v38.5H233.29V80.28c0-4.43-.61-7.46-1.82-9.11s-3.2-2.47-5.95-2.47q-8.64,0-8.63,12.49v32H195.14V49.45h21.75v7H217A20.56,20.56,0,0,1,233.9,48.15Z" fill="#30323d"/><path d="M295.25,114.48q-14.46,0-23.57-9.23t-9.11-23.93q0-14.7,9.11-23.93t23.57-9.24q14.34,0,23.45,9.24t9.11,23.93q0,14.7-9.11,23.93T295.25,114.48Zm-7.71-24a9.78,9.78,0,0,0,7.71,3.57,9.64,9.64,0,0,0,7.66-3.57,13.7,13.7,0,0,0,3-9.17,13.63,13.63,0,0,0-3-9.11,9.66,9.66,0,0,0-7.72-3.51,9.8,9.8,0,0,0-7.77,3.51,13.41,13.41,0,0,0-3,9.11A13.49,13.49,0,0,0,287.54,90.49Z" fill="#30323d"/><path d="M398,49.45h21.38l-20.05,63.73H382.61l-8.87-35.89h-.12l-8.51,35.89H347.86L327.93,49.45h21.39l8.19,30.72h.24l7.56-30.72h16.56l7.55,30.7h.24Z" fill="#30323d"/><path d="M468.74,114.48q-19.07,0-32.07-12.61t-13-34.73q0-20.41,12.09-34.08t33-13.65a43.15,43.15,0,0,1,18.83,4.48,45.13,45.13,0,0,1,16.28,13.47L487,52.83q-7.91-9.61-18.23-9.62a19.61,19.61,0,0,0-14.64,6.37Q448,56,448,67.14a25.32,25.32,0,0,0,5.65,16.71q5.64,6.84,15.12,6.83a21.56,21.56,0,0,0,10.09-2.6A24,24,0,0,0,487,81.32l16.88,15.61a46.07,46.07,0,0,1-15.06,12.68A41.84,41.84,0,0,1,468.74,114.48Z" fill="#30323d"/><path d="M540.79,114.48q-14.46,0-23.57-9.23t-9.11-23.93q0-14.7,9.11-23.93t23.57-9.24q14.33,0,23.45,9.24t9.11,23.93q0,14.7-9.11,23.93T540.79,114.48Zm-7.72-24a9.82,9.82,0,0,0,7.72,3.57,9.61,9.61,0,0,0,7.65-3.57,13.71,13.71,0,0,0,3-9.17,13.58,13.58,0,0,0-3-9.11,9.63,9.63,0,0,0-7.71-3.51A9.83,9.83,0,0,0,533,72.21a13.46,13.46,0,0,0-3,9.11A13.54,13.54,0,0,0,533.07,90.49Z" fill="#30323d"/><path d="M620.24,48.15q10,0,15.55,6t5.59,20.55v38.5H619.63V80.28c0-4.43-.6-7.46-1.82-9.11s-3.2-2.47-5.95-2.47q-8.62,0-8.63,12.49v32H581.49V49.45h21.74v7h.13A20.54,20.54,0,0,1,620.24,48.15Z" fill="#30323d"/><path d="M709.66,80.8a39.76,39.76,0,0,1-.49,6.24h-39a9.77,9.77,0,0,0,4.07,6.76,13.92,13.92,0,0,0,8.2,2.35q7.41,0,13.73-7l11.17,13.27a30.52,30.52,0,0,1-11.17,8.71,36.57,36.57,0,0,1-16,3.38q-13.49,0-22.36-9.3t-8.87-23.86q0-14.44,8.69-23.8t22.17-9.37a28,28,0,0,1,21.39,9.17Q709.67,66.49,709.66,80.8Zm-30-15a9,9,0,0,0-6.19,2.28,10.59,10.59,0,0,0-3.28,6.3h18.46Q687.07,65.84,679.65,65.84Z" fill="#30323d"/><path d="M55.63,110.88l13.7-32.81c4.47-10.72-1.12-24.14-10.07-24.14H31.86c-8.94,0-14.53,13.42-10.06,24.14l13.7,32.81C40,121.59,51.16,121.59,55.63,110.88Z" fill="#2d3439" fill-rule="evenodd"/><path d="M57.61,1.86H33.51A20.27,20.27,0,0,0,16,12l-12,20.87a20.26,20.26,0,0,0,0,20.26L16,74A20.27,20.27,0,0,0,33.51,84.14h24.1A20.27,20.27,0,0,0,75.16,74l12-20.87a20.26,20.26,0,0,0,0-20.26L75.16,12A20.27,20.27,0,0,0,57.61,1.86Z" fill-rule="evenodd" fill="url(#a)"/></svg>