<svg xmlns="http://www.w3.org/2000/svg" xmlns:xlink="http://www.w3.org/1999/xlink" viewBox="0 0 260 260"><defs><linearGradient id="a" x1="50.37" y1="45.69" x2="208.64" y2="137.06" gradientUnits="userSpaceOnUse"><stop offset="0" stop-color="#ffe566"/><stop offset="0.29" stop-color="#ffe368"/><stop offset="0.29" stop-color="#ffe368"/><stop offset="0.29" stop-color="#ffe16a"/><stop offset="0.29" stop-color="#ffda6f"/><stop offset="0.29" stop-color="#ffcd79"/><stop offset="0.29" stop-color="#ffbc87"/><stop offset="0.29" stop-color="#ffa59a"/><stop offset="0.29" stop-color="#ff89b0"/><stop offset="0.29" stop-color="#ff68ca"/><stop offset="0.29" stop-color="#f6c"/><stop offset="0.48" stop-color="#f6c"/><stop offset="0.82" stop-color="#f6c"/><stop offset="0.82" stop-color="#e16bd6"/><stop offset="0.82" stop-color="#c170e1"/><stop offset="0.82" stop-color="#a575ea"/><stop offset="0.82" stop-color="#8e79f1"/><stop offset="0.82" stop-color="#7d7cf7"/><stop offset="0.82" stop-color="#717efb"/><stop offset="0.82" stop-color="#6a7ffd"/><stop offset="0.82" stop-color="#687ffe"/><stop offset="0.82" stop-color="#687ffe"/><stop offset="1" stop-color="#667fff"/></linearGradient></defs><path d="M151.86,242.15l30.43-72.87c9.94-23.81-2.48-53.62-22.35-53.62H99.08c-19.88,0-32.3,29.81-22.36,53.62l30.43,72.87C117.09,266,141.93,266,151.86,242.15Z" fill="#2d3439" fill-rule="evenodd"/><path d="M156.27,0H102.74a45,45,0,0,0-39,22.51L37,68.87a45,45,0,0,0,0,45l26.77,46.36a45,45,0,0,0,39,22.51h53.53a45,45,0,0,0,39-22.51L222,113.88a45,45,0,0,0,0-45L195.26,22.51A45,45,0,0,0,156.27,0Z" fill-rule="evenodd" fill="url(#a)"/></svg>